<?xml version="1.0" ?>
<!-- Uploaded to: SVG Repo, www.svgrepo.com, Generator: SVG Repo Mixer Tools -->
<svg fill="#000000" width="800px" height="800px" viewBox="0 0 64 64" xmlns="http://www.w3.org/2000/svg">
<g data-name="34 ecommerce 2" id="_34_ecommerce_2">
<path d="M44.31,3.5H19.69a6,6,0,0,0-6,6v45a6,6,0,0,0,6,6H44.31a6,6,0,0,0,6-6V9.5A6,6,0,0,0,44.31,3.5Zm-5.46,2-.83,3.09H25.98L25.15,5.5Zm9.46,49a4,4,0,0,1-4,4H19.69a4,4,0,0,1-4-4V52.35H48.31Zm0-4.15H15.69V9.5a4,4,0,0,1,4-4h3.39l.97,3.61a1.993,1.993,0,0,0,1.93,1.48H38.02a1.993,1.993,0,0,0,1.93-1.48l.97-3.61h3.39a4,4,0,0,1,4,4Z"/>
<path d="M34.319,54.426H29.963a1,1,0,0,0,0,2h4.356a1,1,0,0,0,0-2Z"/>
<path d="M38.83,25.88A2.01,2.01,0,0,0,36.67,24H35V22a3,3,0,0,0-6,0v2H27.33a2,2,0,0,0-2.16,1.78L24,38.12A2.013,2.013,0,0,0,26.17,40H37.83A2.025,2.025,0,0,0,40,38.03ZM31,22a1,1,0,0,1,2,0v2H31Zm6.83,16H26.17a.605.605,0,0,1-.15-.02l1.13-11.95a.662.662,0,0,1,.18-.03H29v3a1,1,0,0,0,2,0V26h2v3a1,1,0,0,0,2,0V26h1.67a.517.517,0,0,1,.17.03l1.15,11.95A.627.627,0,0,1,37.83,38Z"/>
<path d="M36.7,17.71A1,1,0,0,1,36,18a.976.976,0,0,1-.71-.3l-3.24-3.29-3.35,3.3a1,1,0,1,1-1.4-1.42l4.05-4a1,1,0,0,1,1.42.01l3.94,4A.987.987,0,0,1,36.7,17.71Z"/>
<path d="M36.71,44.7l-3.94,4a1,1,0,0,1-1.42.01l-4.05-4a1,1,0,1,1,1.4-1.42l3.35,3.3,3.24-3.29a1,1,0,1,1,1.42,1.4Z"/>
</g>
</svg>